<svg width="75" height="24" viewBox="0 0 75 24" fill="none" xmlns="http://www.w3.org/2000/svg">
<path d="M7.464 17.984C8.416 17.872 9.136 17.56 9.624 17.048C10.12 16.536 10.368 15.876 10.368 15.068C10.368 14.724 10.304 14.424 10.176 14.168C10.048 13.912 9.872 13.688 9.648 13.496C9.432 13.304 9.172 13.14 8.868 13.004C8.564 12.86 8.236 12.728 7.884 12.608L7.464 17.984ZM6.876 4.772C6.396 4.82 5.984 4.92 5.64 5.072C5.296 5.216 5.012 5.396 4.788 5.612C4.564 5.82 4.4 6.056 4.296 6.32C4.192 6.584 4.14 6.864 4.14 7.16C4.14 7.496 4.2 7.792 4.32 8.048C4.44 8.304 4.604 8.532 4.812 8.732C5.028 8.924 5.28 9.096 5.568 9.248C5.856 9.392 6.168 9.528 6.504 9.656L6.876 4.772ZM8.076 10.16C8.652 10.336 9.22 10.532 9.78 10.748C10.348 10.956 10.856 11.228 11.304 11.564C11.752 11.892 12.112 12.304 12.384 12.8C12.664 13.296 12.804 13.916 12.804 14.66C12.804 15.388 12.68 16.076 12.432 16.724C12.192 17.364 11.836 17.932 11.364 18.428C10.892 18.916 10.312 19.316 9.624 19.628C8.944 19.932 8.168 20.112 7.296 20.168L7.152 22.088C7.144 22.256 7.076 22.408 6.948 22.544C6.82 22.688 6.656 22.76 6.456 22.76H5.496L5.7 20.132C4.756 20.02 3.876 19.772 3.06 19.388C2.252 18.996 1.56 18.508 0.984 17.924L1.764 16.736C1.836 16.632 1.928 16.548 2.04 16.484C2.16 16.412 2.288 16.376 2.424 16.376C2.592 16.376 2.772 16.444 2.964 16.58C3.164 16.716 3.396 16.876 3.66 17.06C3.924 17.236 4.236 17.412 4.596 17.588C4.956 17.756 5.38 17.88 5.868 17.96L6.312 12.14C5.752 11.972 5.196 11.784 4.644 11.576C4.1 11.36 3.608 11.076 3.168 10.724C2.736 10.372 2.384 9.932 2.112 9.404C1.848 8.876 1.716 8.212 1.716 7.412C1.716 6.812 1.832 6.228 2.064 5.66C2.304 5.092 2.648 4.588 3.096 4.148C3.552 3.7 4.112 3.336 4.776 3.056C5.44 2.768 6.2 2.604 7.056 2.564L7.176 0.955998C7.184 0.779999 7.252 0.623999 7.38 0.487999C7.508 0.351999 7.672 0.283998 7.872 0.283998H8.832L8.652 2.636C9.492 2.756 10.22 2.988 10.836 3.332C11.452 3.668 11.988 4.06 12.444 4.508L11.82 5.468C11.644 5.748 11.428 5.888 11.172 5.888C11.052 5.888 10.908 5.844 10.74 5.756C10.58 5.668 10.388 5.564 10.164 5.444C9.948 5.324 9.7 5.204 9.42 5.084C9.14 4.964 8.828 4.872 8.484 4.808L8.076 10.16ZM25.7299 17.564C26.0099 17.564 26.2299 17.648 26.3899 17.816C26.5499 17.976 26.6299 18.184 26.6299 18.44V20H14.9419V19.124C14.9419 18.948 14.9779 18.764 15.0499 18.572C15.1219 18.38 15.2379 18.204 15.3979 18.044L20.7739 12.656C21.2299 12.2 21.6339 11.764 21.9859 11.348C22.3459 10.932 22.6499 10.516 22.8979 10.1C23.1539 9.684 23.3459 9.264 23.4739 8.84C23.6099 8.408 23.6779 7.956 23.6779 7.484C23.6779 7.028 23.6059 6.628 23.4619 6.284C23.3259 5.932 23.1339 5.644 22.8859 5.42C22.6459 5.188 22.3539 5.016 22.0099 4.904C21.6739 4.784 21.3019 4.724 20.8939 4.724C20.5019 4.724 20.1379 4.78 19.8019 4.892C19.4739 5.004 19.1779 5.16 18.9139 5.36C18.6579 5.56 18.4419 5.8 18.2659 6.08C18.0979 6.352 17.9739 6.652 17.8939 6.98C17.7739 7.308 17.6179 7.528 17.4259 7.64C17.2419 7.752 16.9699 7.776 16.6099 7.712L15.2539 7.472C15.3739 6.656 15.5979 5.94 15.9259 5.324C16.2619 4.708 16.6819 4.196 17.1859 3.788C17.6899 3.372 18.2659 3.06 18.9139 2.852C19.5699 2.636 20.2779 2.528 21.0379 2.528C21.8059 2.528 22.5099 2.644 23.1499 2.876C23.7979 3.1 24.3539 3.424 24.8179 3.848C25.2899 4.264 25.6579 4.772 25.9219 5.372C26.1859 5.972 26.3179 6.648 26.3179 7.4C26.3179 8.04 26.2219 8.632 26.0299 9.176C25.8459 9.72 25.5939 10.24 25.2739 10.736C24.9539 11.232 24.5779 11.716 24.1459 12.188C23.7219 12.652 23.2739 13.124 22.8019 13.604L18.6259 17.876C18.9699 17.78 19.3139 17.704 19.6579 17.648C20.0099 17.592 20.3419 17.564 20.6539 17.564H25.7299ZM30.5678 19.988C30.3358 19.988 30.1238 19.948 29.9318 19.868C29.7398 19.78 29.5718 19.664 29.4277 19.52C29.2918 19.368 29.1838 19.192 29.1038 18.992C29.0318 18.792 28.9958 18.572 28.9958 18.332C28.9958 18.124 29.0318 17.928 29.1038 17.744C29.1838 17.56 29.2918 17.4 29.4277 17.264C29.5718 17.128 29.7398 17.024 29.9318 16.952C30.1318 16.872 30.3478 16.832 30.5798 16.832C30.8518 16.832 31.0918 16.884 31.2998 16.988C31.5078 17.084 31.6798 17.22 31.8158 17.396C31.9598 17.564 32.0638 17.764 32.1278 17.996C32.1998 18.22 32.2358 18.46 32.2358 18.716C32.2358 19.084 32.1798 19.472 32.0678 19.88C31.9638 20.288 31.8038 20.692 31.5878 21.092C31.3798 21.5 31.1198 21.896 30.8078 22.28C30.5038 22.664 30.1558 23.016 29.7638 23.336L29.3198 22.928C29.2558 22.864 29.2078 22.804 29.1758 22.748C29.1518 22.692 29.1398 22.62 29.1398 22.532C29.1398 22.396 29.2078 22.268 29.3438 22.148C29.4238 22.06 29.5278 21.944 29.6558 21.8C29.7838 21.656 29.9118 21.492 30.0398 21.308C30.1678 21.124 30.2838 20.92 30.3878 20.696C30.4998 20.472 30.5798 20.236 30.6278 19.988H30.5678ZM45.183 17.564C45.463 17.564 45.683 17.648 45.843 17.816C46.003 17.976 46.083 18.184 46.083 18.44V20H34.395V19.124C34.395 18.948 34.431 18.764 34.503 18.572C34.575 18.38 34.691 18.204 34.851 18.044L40.227 12.656C40.683 12.2 41.087 11.764 41.439 11.348C41.799 10.932 42.103 10.516 42.351 10.1C42.607 9.684 42.799 9.264 42.927 8.84C43.063 8.408 43.131 7.956 43.131 7.484C43.131 7.028 43.059 6.628 42.915 6.284C42.779 5.932 42.587 5.644 42.339 5.42C42.099 5.188 41.807 5.016 41.463 4.904C41.127 4.784 40.755 4.724 40.347 4.724C39.955 4.724 39.591 4.78 39.255 4.892C38.927 5.004 38.631 5.16 38.367 5.36C38.111 5.56 37.895 5.8 37.719 6.08C37.551 6.352 37.427 6.652 37.347 6.98C37.227 7.308 37.071 7.528 36.879 7.64C36.695 7.752 36.423 7.776 36.063 7.712L34.707 7.472C34.827 6.656 35.051 5.94 35.379 5.324C35.715 4.708 36.135 4.196 36.639 3.788C37.143 3.372 37.719 3.06 38.367 2.852C39.023 2.636 39.731 2.528 40.491 2.528C41.259 2.528 41.963 2.644 42.603 2.876C43.251 3.1 43.807 3.424 44.271 3.848C44.743 4.264 45.111 4.772 45.375 5.372C45.639 5.972 45.771 6.648 45.771 7.4C45.771 8.04 45.675 8.632 45.483 9.176C45.299 9.72 45.047 10.24 44.727 10.736C44.407 11.232 44.031 11.716 43.599 12.188C43.175 12.652 42.727 13.124 42.255 13.604L38.079 17.876C38.423 17.78 38.767 17.704 39.111 17.648C39.463 17.592 39.795 17.564 40.107 17.564H45.183ZM60.5569 11.36C60.5569 12.872 60.3929 14.18 60.0649 15.284C59.7449 16.388 59.3009 17.304 58.7329 18.032C58.1649 18.76 57.4969 19.3 56.7289 19.652C55.9609 20.004 55.1329 20.18 54.2449 20.18C53.3569 20.18 52.5289 20.004 51.7609 19.652C50.9929 19.3 50.3249 18.76 49.7569 18.032C49.1969 17.304 48.7569 16.388 48.4369 15.284C48.1169 14.18 47.9569 12.872 47.9569 11.36C47.9569 9.848 48.1169 8.54 48.4369 7.436C48.7569 6.324 49.1969 5.408 49.7569 4.688C50.3249 3.96 50.9929 3.42 51.7609 3.068C52.5289 2.708 53.3569 2.528 54.2449 2.528C55.1329 2.528 55.9609 2.708 56.7289 3.068C57.4969 3.42 58.1649 3.96 58.7329 4.688C59.3009 5.408 59.7449 6.324 60.0649 7.436C60.3929 8.54 60.5569 9.848 60.5569 11.36ZM57.8929 11.36C57.8929 10.08 57.7889 9.016 57.5809 8.168C57.3809 7.312 57.1129 6.628 56.7769 6.116C56.4409 5.604 56.0529 5.24 55.6129 5.024C55.1729 4.808 54.7169 4.7 54.2449 4.7C53.7649 4.7 53.3049 4.808 52.8649 5.024C52.4329 5.24 52.0489 5.604 51.7129 6.116C51.3769 6.628 51.1089 7.312 50.9089 8.168C50.7089 9.016 50.6089 10.08 50.6089 11.36C50.6089 12.64 50.7089 13.708 50.9089 14.564C51.1089 15.412 51.3769 16.092 51.7129 16.604C52.0489 17.116 52.4329 17.48 52.8649 17.696C53.3049 17.912 53.7649 18.02 54.2449 18.02C54.7169 18.02 55.1729 17.912 55.6129 17.696C56.0529 17.48 56.4409 17.116 56.7769 16.604C57.1129 16.092 57.3809 15.412 57.5809 14.564C57.7889 13.708 57.8929 12.64 57.8929 11.36ZM74.4788 11.36C74.4788 12.872 74.3148 14.18 73.9868 15.284C73.6668 16.388 73.2228 17.304 72.6548 18.032C72.0868 18.76 71.4188 19.3 70.6508 19.652C69.8828 20.004 69.0548 20.18 68.1668 20.18C67.2788 20.18 66.4508 20.004 65.6828 19.652C64.9148 19.3 64.2468 18.76 63.6788 18.032C63.1188 17.304 62.6788 16.388 62.3588 15.284C62.0388 14.18 61.8788 12.872 61.8788 11.36C61.8788 9.848 62.0388 8.54 62.3588 7.436C62.6788 6.324 63.1188 5.408 63.6788 4.688C64.2468 3.96 64.9148 3.42 65.6828 3.068C66.4508 2.708 67.2788 2.528 68.1668 2.528C69.0548 2.528 69.8828 2.708 70.6508 3.068C71.4188 3.42 72.0868 3.96 72.6548 4.688C73.2228 5.408 73.6668 6.324 73.9868 7.436C74.3148 8.54 74.4788 9.848 74.4788 11.36ZM71.8148 11.36C71.8148 10.08 71.7108 9.016 71.5028 8.168C71.3028 7.312 71.0348 6.628 70.6988 6.116C70.3628 5.604 69.9748 5.24 69.5348 5.024C69.0948 4.808 68.6388 4.7 68.1668 4.7C67.6868 4.7 67.2268 4.808 66.7868 5.024C66.3548 5.24 65.9708 5.604 65.6348 6.116C65.2988 6.628 65.0308 7.312 64.8308 8.168C64.6308 9.016 64.5308 10.08 64.5308 11.36C64.5308 12.64 64.6308 13.708 64.8308 14.564C65.0308 15.412 65.2988 16.092 65.6348 16.604C65.9708 17.116 66.3548 17.48 66.7868 17.696C67.2268 17.912 67.6868 18.02 68.1668 18.02C68.6388 18.02 69.0948 17.912 69.5348 17.696C69.9748 17.48 70.3628 17.116 70.6988 16.604C71.0348 16.092 71.3028 15.412 71.5028 14.564C71.7108 13.708 71.8148 12.64 71.8148 11.36Z" fill="black"/>
</svg>
