<svg width="91" height="24" viewBox="0 0 91 24" fill="none" xmlns="http://www.w3.org/2000/svg">
<path d="M9.90625 18H0.355469V0.867188H9.90625V2.63672H2.34766V8.15625H9.44922V9.91406H2.34766V16.2188H9.90625V18ZM16.5156 11.4258L12.0508 5.15625H14.2656L17.6523 10.0781L21.0273 5.15625H23.2188L18.7539 11.4258L23.4531 18H21.25L17.6523 12.7969L14.0195 18H11.8164L16.5156 11.4258ZM31.9844 18.2344C31.1484 18.2344 30.3828 18.082 29.6875 17.7773C29 17.4648 28.4219 16.9883 27.9531 16.3477H27.8125C27.9062 17.0977 27.9531 17.8086 27.9531 18.4805V23.7656H26.0078V5.15625H27.5898L27.8594 6.91406H27.9531C28.4531 6.21094 29.0352 5.70312 29.6992 5.39062C30.3633 5.07812 31.125 4.92188 31.9844 4.92188C33.6875 4.92188 35 5.50391 35.9219 6.66797C36.8516 7.83203 37.3164 9.46484 37.3164 11.5664C37.3164 13.6758 36.8438 15.3164 35.8984 16.4883C34.9609 17.6523 33.6562 18.2344 31.9844 18.2344ZM31.7031 6.57422C30.3906 6.57422 29.4414 6.9375 28.8555 7.66406C28.2695 8.39062 27.9688 9.54688 27.9531 11.1328V11.5664C27.9531 13.3711 28.2539 14.6641 28.8555 15.4453C29.457 16.2188 30.4219 16.6055 31.75 16.6055C32.8594 16.6055 33.7266 16.1562 34.3516 15.2578C34.9844 14.3594 35.3008 13.1211 35.3008 11.543C35.3008 9.94141 34.9844 8.71484 34.3516 7.86328C33.7266 7.00391 32.8438 6.57422 31.7031 6.57422ZM46.1523 18.2344C44.2539 18.2344 42.7539 17.6562 41.6523 16.5C40.5586 15.3438 40.0117 13.7383 40.0117 11.6836C40.0117 9.61328 40.5195 7.96875 41.5352 6.75C42.5586 5.53125 43.9297 4.92188 45.6484 4.92188C47.2578 4.92188 48.5312 5.45312 49.4688 6.51562C50.4062 7.57031 50.875 8.96484 50.875 10.6992V11.9297H42.0273C42.0664 13.4375 42.4453 14.582 43.1641 15.3633C43.8906 16.1445 44.9102 16.5352 46.2227 16.5352C47.6055 16.5352 48.9727 16.2461 50.3242 15.668V17.4023C49.6367 17.6992 48.9844 17.9102 48.3672 18.0352C47.7578 18.168 47.0195 18.2344 46.1523 18.2344ZM45.625 6.55078C44.5938 6.55078 43.7695 6.88672 43.1523 7.55859C42.543 8.23047 42.1836 9.16016 42.0742 10.3477H48.7891C48.7891 9.12109 48.5156 8.18359 47.9688 7.53516C47.4219 6.87891 46.6406 6.55078 45.625 6.55078ZM62.9922 18V9.69141C62.9922 8.64453 62.7539 7.86328 62.2773 7.34766C61.8008 6.83203 61.0547 6.57422 60.0391 6.57422C58.6953 6.57422 57.7109 6.9375 57.0859 7.66406C56.4609 8.39062 56.1484 9.58984 56.1484 11.2617V18H54.2031V5.15625H55.7852L56.1016 6.91406H56.1953C56.5938 6.28125 57.1523 5.79297 57.8711 5.44922C58.5898 5.09766 59.3906 4.92188 60.2734 4.92188C61.8203 4.92188 62.9844 5.29688 63.7656 6.04688C64.5469 6.78906 64.9375 7.98047 64.9375 9.62109V18H62.9922ZM77.2305 14.4961C77.2305 15.6914 76.7852 16.6133 75.8945 17.2617C75.0039 17.9102 73.7539 18.2344 72.1445 18.2344C70.4414 18.2344 69.1133 17.9648 68.1602 17.4258V15.6211C68.7773 15.9336 69.4375 16.1797 70.1406 16.3594C70.8516 16.5391 71.5352 16.6289 72.1914 16.6289C73.207 16.6289 73.9883 16.4688 74.5352 16.1484C75.082 15.8203 75.3555 15.3242 75.3555 14.6602C75.3555 14.1602 75.1367 13.7344 74.6992 13.3828C74.2695 13.0234 73.4258 12.6016 72.168 12.1172C70.9727 11.6719 70.1211 11.2852 69.6133 10.957C69.1133 10.6211 68.7383 10.2422 68.4883 9.82031C68.2461 9.39844 68.125 8.89453 68.125 8.30859C68.125 7.26172 68.5508 6.4375 69.4023 5.83594C70.2539 5.22656 71.4219 4.92188 72.9062 4.92188C74.2891 4.92188 75.6406 5.20312 76.9609 5.76562L76.2695 7.34766C74.9805 6.81641 73.8125 6.55078 72.7656 6.55078C71.8438 6.55078 71.1484 6.69531 70.6797 6.98438C70.2109 7.27344 69.9766 7.67188 69.9766 8.17969C69.9766 8.52344 70.0625 8.81641 70.2344 9.05859C70.4141 9.30078 70.6992 9.53125 71.0898 9.75C71.4805 9.96875 72.2305 10.2852 73.3398 10.6992C74.8633 11.2539 75.8906 11.8125 76.4219 12.375C76.9609 12.9375 77.2305 13.6445 77.2305 14.4961ZM85.832 18.2344C83.9336 18.2344 82.4336 17.6562 81.332 16.5C80.2383 15.3438 79.6914 13.7383 79.6914 11.6836C79.6914 9.61328 80.1992 7.96875 81.2148 6.75C82.2383 5.53125 83.6094 4.92188 85.3281 4.92188C86.9375 4.92188 88.2109 5.45312 89.1484 6.51562C90.0859 7.57031 90.5547 8.96484 90.5547 10.6992V11.9297H81.707C81.7461 13.4375 82.125 14.582 82.8438 15.3633C83.5703 16.1445 84.5898 16.5352 85.9023 16.5352C87.2852 16.5352 88.6523 16.2461 90.0039 15.668V17.4023C89.3164 17.6992 88.6641 17.9102 88.0469 18.0352C87.4375 18.168 86.6992 18.2344 85.832 18.2344ZM85.3047 6.55078C84.2734 6.55078 83.4492 6.88672 82.832 7.55859C82.2227 8.23047 81.8633 9.16016 81.7539 10.3477H88.4688C88.4688 9.12109 88.1953 8.18359 87.6484 7.53516C87.1016 6.87891 86.3203 6.55078 85.3047 6.55078Z" fill="black"/>
</svg>
