<svg width="338" height="24" viewBox="0 0 338 24" fill="none" xmlns="http://www.w3.org/2000/svg">
<path d="M20.6133 12.7051C20.6133 14.0762 20.2656 15.1543 19.5703 15.9395C18.8789 16.7246 17.916 17.1172 16.6816 17.1172C15.4199 17.1172 14.4453 16.7324 13.7578 15.9629C13.0742 15.1895 12.7324 14.0996 12.7324 12.6934C12.7324 11.2988 13.0762 10.2188 13.7637 9.45312C14.4512 8.68359 15.4277 8.29883 16.6934 8.29883C17.9238 8.29883 18.8848 8.68945 19.5762 9.4707C20.2676 10.252 20.6133 11.3301 20.6133 12.7051ZM13.7871 12.7051C13.7871 13.8652 14.0332 14.7461 14.5254 15.3477C15.0215 15.9453 15.7402 16.2441 16.6816 16.2441C17.6309 16.2441 18.3477 15.9453 18.832 15.3477C19.3164 14.75 19.5586 13.8691 19.5586 12.7051C19.5586 11.5527 19.3164 10.6797 18.832 10.0859C18.3516 9.48828 17.6387 9.18945 16.6934 9.18945C15.7441 9.18945 15.0215 9.49023 14.5254 10.0918C14.0332 10.6895 13.7871 11.5605 13.7871 12.7051ZM25.2773 11.334H23.6426V17H22.6699V11.334H21.5215V10.8945L22.6699 10.543V10.1855C22.6699 8.60742 23.3594 7.81836 24.7383 7.81836C25.0781 7.81836 25.4766 7.88672 25.9336 8.02344L25.6816 8.80273C25.3066 8.68164 24.9863 8.62109 24.7207 8.62109C24.3535 8.62109 24.082 8.74414 23.9062 8.99023C23.7305 9.23242 23.6426 9.62305 23.6426 10.1621V10.5781H25.2773V11.334ZM29.3438 11.334H27.709V17H26.7363V11.334H25.5879V10.8945L26.7363 10.543V10.1855C26.7363 8.60742 27.4258 7.81836 28.8047 7.81836C29.1445 7.81836 29.543 7.88672 30 8.02344L29.748 8.80273C29.373 8.68164 29.0527 8.62109 28.7871 8.62109C28.4199 8.62109 28.1484 8.74414 27.9727 8.99023C27.7969 9.23242 27.709 9.62305 27.709 10.1621V10.5781H29.3438V11.334ZM31.4883 17H30.5156V10.5781H31.4883V17ZM30.4336 8.83789C30.4336 8.61523 30.4883 8.45312 30.5977 8.35156C30.707 8.24609 30.8438 8.19336 31.0078 8.19336C31.1641 8.19336 31.2988 8.24609 31.4121 8.35156C31.5254 8.45703 31.582 8.61914 31.582 8.83789C31.582 9.05664 31.5254 9.2207 31.4121 9.33008C31.2988 9.43555 31.1641 9.48828 31.0078 9.48828C30.8438 9.48828 30.707 9.43555 30.5977 9.33008C30.4883 9.2207 30.4336 9.05664 30.4336 8.83789ZM36.1172 17.1172C35.1875 17.1172 34.4668 16.832 33.9551 16.2617C33.4473 15.6875 33.1934 14.877 33.1934 13.8301C33.1934 12.7559 33.4512 11.9258 33.9668 11.3398C34.4863 10.7539 35.2246 10.4609 36.1816 10.4609C36.4902 10.4609 36.7988 10.4941 37.1074 10.5605C37.416 10.627 37.6582 10.7051 37.834 10.7949L37.5352 11.6211C37.3203 11.5352 37.0859 11.4648 36.832 11.4102C36.5781 11.3516 36.3535 11.3223 36.1582 11.3223C34.8535 11.3223 34.2012 12.1543 34.2012 13.8184C34.2012 14.6074 34.3594 15.2129 34.6758 15.6348C34.9961 16.0566 35.4688 16.2676 36.0938 16.2676C36.6289 16.2676 37.1777 16.1523 37.7402 15.9219V16.7832C37.3105 17.0059 36.7695 17.1172 36.1172 17.1172ZM41.9824 17.1172C41.0332 17.1172 40.2832 16.8281 39.7324 16.25C39.1855 15.6719 38.9121 14.8691 38.9121 13.8418C38.9121 12.8066 39.166 11.9844 39.6738 11.375C40.1855 10.7656 40.8711 10.4609 41.7305 10.4609C42.5352 10.4609 43.1719 10.7266 43.6406 11.2578C44.1094 11.7852 44.3438 12.4824 44.3438 13.3496V13.9648H39.9199C39.9395 14.7188 40.1289 15.291 40.4883 15.6816C40.8516 16.0723 41.3613 16.2676 42.0176 16.2676C42.709 16.2676 43.3926 16.123 44.0684 15.834V16.7012C43.7246 16.8496 43.3984 16.9551 43.0898 17.0176C42.7852 17.084 42.416 17.1172 41.9824 17.1172ZM41.7188 11.2754C41.2031 11.2754 40.791 11.4434 40.4824 11.7793C40.1777 12.1152 39.998 12.5801 39.9434 13.1738H43.3008C43.3008 12.5605 43.1641 12.0918 42.8906 11.7676C42.6172 11.4395 42.2266 11.2754 41.7188 11.2754ZM54.0469 17H49.2715V8.43359H54.0469V9.31836H50.2676V12.0781H53.8184V12.957H50.2676V16.1094H54.0469V17ZM57.3516 13.7129L55.1191 10.5781H56.2266L57.9199 13.0391L59.6074 10.5781H60.7031L58.4707 13.7129L60.8203 17H59.7188L57.9199 14.3984L56.1035 17H55.002L57.3516 13.7129ZM65.0859 17.1172C64.668 17.1172 64.2852 17.041 63.9375 16.8887C63.5938 16.7324 63.3047 16.4941 63.0703 16.1738H63C63.0469 16.5488 63.0703 16.9043 63.0703 17.2402V19.8828H62.0977V10.5781H62.8887L63.0234 11.457H63.0703C63.3203 11.1055 63.6113 10.8516 63.9434 10.6953C64.2754 10.5391 64.6562 10.4609 65.0859 10.4609C65.9375 10.4609 66.5938 10.752 67.0547 11.334C67.5195 11.916 67.752 12.7324 67.752 13.7832C67.752 14.8379 67.5156 15.6582 67.043 16.2441C66.5742 16.8262 65.9219 17.1172 65.0859 17.1172ZM64.9453 11.2871C64.2891 11.2871 63.8145 11.4688 63.5215 11.832C63.2285 12.1953 63.0781 12.7734 63.0703 13.5664V13.7832C63.0703 14.6855 63.2207 15.332 63.5215 15.7227C63.8223 16.1094 64.3047 16.3027 64.9688 16.3027C65.5234 16.3027 65.957 16.0781 66.2695 15.6289C66.5859 15.1797 66.7441 14.5605 66.7441 13.7715C66.7441 12.9707 66.5859 12.3574 66.2695 11.9316C65.957 11.502 65.5156 11.2871 64.9453 11.2871ZM72.1699 17.1172C71.2207 17.1172 70.4707 16.8281 69.9199 16.25C69.373 15.6719 69.0996 14.8691 69.0996 13.8418C69.0996 12.8066 69.3535 11.9844 69.8613 11.375C70.373 10.7656 71.0586 10.4609 71.918 10.4609C72.7227 10.4609 73.3594 10.7266 73.8281 11.2578C74.2969 11.7852 74.5312 12.4824 74.5312 13.3496V13.9648H70.1074C70.127 14.7188 70.3164 15.291 70.6758 15.6816C71.0391 16.0723 71.5488 16.2676 72.2051 16.2676C72.8965 16.2676 73.5801 16.123 74.2559 15.834V16.7012C73.9121 16.8496 73.5859 16.9551 73.2773 17.0176C72.9727 17.084 72.6035 17.1172 72.1699 17.1172ZM71.9062 11.2754C71.3906 11.2754 70.9785 11.4434 70.6699 11.7793C70.3652 12.1152 70.1855 12.5801 70.1309 13.1738H73.4883C73.4883 12.5605 73.3516 12.0918 73.0781 11.7676C72.8047 11.4395 72.4141 11.2754 71.9062 11.2754ZM80.5898 17V12.8457C80.5898 12.3223 80.4707 11.9316 80.2324 11.6738C79.9941 11.416 79.6211 11.2871 79.1133 11.2871C78.4414 11.2871 77.9492 11.4688 77.6367 11.832C77.3242 12.1953 77.168 12.7949 77.168 13.6309V17H76.1953V10.5781H76.9863L77.1445 11.457H77.1914C77.3906 11.1406 77.6699 10.8965 78.0293 10.7246C78.3887 10.5488 78.7891 10.4609 79.2305 10.4609C80.0039 10.4609 80.5859 10.6484 80.9766 11.0234C81.3672 11.3945 81.5625 11.9902 81.5625 12.8105V17H80.5898ZM87.709 15.248C87.709 15.8457 87.4863 16.3066 87.041 16.6309C86.5957 16.9551 85.9707 17.1172 85.166 17.1172C84.3145 17.1172 83.6504 16.9824 83.1738 16.7129V15.8105C83.4824 15.9668 83.8125 16.0898 84.1641 16.1797C84.5195 16.2695 84.8613 16.3145 85.1895 16.3145C85.6973 16.3145 86.0879 16.2344 86.3613 16.0742C86.6348 15.9102 86.7715 15.6621 86.7715 15.3301C86.7715 15.0801 86.6621 14.8672 86.4434 14.6914C86.2285 14.5117 85.8066 14.3008 85.1777 14.0586C84.5801 13.8359 84.1543 13.6426 83.9004 13.4785C83.6504 13.3105 83.4629 13.1211 83.3379 12.9102C83.2168 12.6992 83.1562 12.4473 83.1562 12.1543C83.1562 11.6309 83.3691 11.2188 83.7949 10.918C84.2207 10.6133 84.8047 10.4609 85.5469 10.4609C86.2383 10.4609 86.9141 10.6016 87.5742 10.8828L87.2285 11.6738C86.584 11.4082 86 11.2754 85.4766 11.2754C85.0156 11.2754 84.668 11.3477 84.4336 11.4922C84.1992 11.6367 84.082 11.8359 84.082 12.0898C84.082 12.2617 84.125 12.4082 84.2109 12.5293C84.3008 12.6504 84.4434 12.7656 84.6387 12.875C84.834 12.9844 85.209 13.1426 85.7637 13.3496C86.5254 13.627 87.0391 13.9062 87.3047 14.1875C87.5742 14.4688 87.709 14.8223 87.709 15.248ZM92.0098 17.1172C91.0605 17.1172 90.3105 16.8281 89.7598 16.25C89.2129 15.6719 88.9395 14.8691 88.9395 13.8418C88.9395 12.8066 89.1934 11.9844 89.7012 11.375C90.2129 10.7656 90.8984 10.4609 91.7578 10.4609C92.5625 10.4609 93.1992 10.7266 93.668 11.2578C94.1367 11.7852 94.3711 12.4824 94.3711 13.3496V13.9648H89.9473C89.9668 14.7188 90.1562 15.291 90.5156 15.6816C90.8789 16.0723 91.3887 16.2676 92.0449 16.2676C92.7363 16.2676 93.4199 16.123 94.0957 15.834V16.7012C93.752 16.8496 93.4258 16.9551 93.1172 17.0176C92.8125 17.084 92.4434 17.1172 92.0098 17.1172ZM91.7461 11.2754C91.2305 11.2754 90.8184 11.4434 90.5098 11.7793C90.2051 12.1152 90.0254 12.5801 89.9707 13.1738H93.3281C93.3281 12.5605 93.1914 12.0918 92.918 11.7676C92.6445 11.4395 92.2539 11.2754 91.7461 11.2754Z" fill="black"/>
<circle cx="4.5" cy="12.5" r="4.5" fill="url(#paint0_linear_2264_5531)"/>
<path d="M136.178 8.43359H138.598C139.734 8.43359 140.557 8.60352 141.064 8.94336C141.572 9.2832 141.826 9.82031 141.826 10.5547C141.826 11.0625 141.684 11.4824 141.398 11.8145C141.117 12.1426 140.705 12.3555 140.162 12.4531V12.5117C141.463 12.7344 142.113 13.418 142.113 14.5625C142.113 15.3281 141.854 15.9258 141.334 16.3555C140.818 16.7852 140.096 17 139.166 17H136.178V8.43359ZM137.174 12.1016H138.814C139.518 12.1016 140.023 11.9922 140.332 11.7734C140.641 11.5508 140.795 11.1777 140.795 10.6543C140.795 10.1738 140.623 9.82812 140.279 9.61719C139.936 9.40234 139.389 9.29492 138.639 9.29492H137.174V12.1016ZM137.174 12.9453V16.1504H138.961C139.652 16.1504 140.172 16.0176 140.52 15.752C140.871 15.4824 141.047 15.0625 141.047 14.4922C141.047 13.9609 140.867 13.5703 140.508 13.3203C140.152 13.0703 139.609 12.9453 138.879 12.9453H137.174ZM147.762 17L147.568 16.0859H147.521C147.201 16.4883 146.881 16.7617 146.561 16.9062C146.244 17.0469 145.848 17.1172 145.371 17.1172C144.734 17.1172 144.234 16.9531 143.871 16.625C143.512 16.2969 143.332 15.8301 143.332 15.2246C143.332 13.9277 144.369 13.248 146.443 13.1855L147.533 13.1504V12.752C147.533 12.248 147.424 11.877 147.205 11.6387C146.99 11.3965 146.645 11.2754 146.168 11.2754C145.633 11.2754 145.027 11.4395 144.352 11.7676L144.053 11.0234C144.369 10.8516 144.715 10.7168 145.09 10.6191C145.469 10.5215 145.848 10.4727 146.227 10.4727C146.992 10.4727 147.559 10.6426 147.926 10.9824C148.297 11.3223 148.482 11.8672 148.482 12.6172V17H147.762ZM145.564 16.3145C146.17 16.3145 146.645 16.1484 146.988 15.8164C147.336 15.4844 147.51 15.0195 147.51 14.4219V13.8418L146.537 13.8828C145.764 13.9102 145.205 14.0312 144.861 14.2461C144.521 14.457 144.352 14.7871 144.352 15.2363C144.352 15.5879 144.457 15.8555 144.668 16.0391C144.883 16.2227 145.182 16.3145 145.564 16.3145ZM154.887 17V12.8457C154.887 12.3223 154.768 11.9316 154.529 11.6738C154.291 11.416 153.918 11.2871 153.41 11.2871C152.738 11.2871 152.246 11.4688 151.934 11.832C151.621 12.1953 151.465 12.7949 151.465 13.6309V17H150.492V10.5781H151.283L151.441 11.457H151.488C151.688 11.1406 151.967 10.8965 152.326 10.7246C152.686 10.5488 153.086 10.4609 153.527 10.4609C154.301 10.4609 154.883 10.6484 155.273 11.0234C155.664 11.3945 155.859 11.9902 155.859 12.8105V17H154.887ZM158.824 13.7129C158.992 13.4746 159.248 13.1621 159.592 12.7754L161.666 10.5781H162.82L160.219 13.3145L163.002 17H161.824L159.557 13.9648L158.824 14.5977V17H157.863V7.88281H158.824V12.7168C158.824 12.9316 158.809 13.2637 158.777 13.7129H158.824ZM172.207 17H167.432V8.43359H172.207V9.31836H168.428V12.0781H171.979V12.957H168.428V16.1094H172.207V17ZM175.512 13.7129L173.279 10.5781H174.387L176.08 13.0391L177.768 10.5781H178.863L176.631 13.7129L178.98 17H177.879L176.08 14.3984L174.264 17H173.162L175.512 13.7129ZM183.246 17.1172C182.828 17.1172 182.445 17.041 182.098 16.8887C181.754 16.7324 181.465 16.4941 181.23 16.1738H181.16C181.207 16.5488 181.23 16.9043 181.23 17.2402V19.8828H180.258V10.5781H181.049L181.184 11.457H181.23C181.48 11.1055 181.771 10.8516 182.104 10.6953C182.436 10.5391 182.816 10.4609 183.246 10.4609C184.098 10.4609 184.754 10.752 185.215 11.334C185.68 11.916 185.912 12.7324 185.912 13.7832C185.912 14.8379 185.676 15.6582 185.203 16.2441C184.734 16.8262 184.082 17.1172 183.246 17.1172ZM183.105 11.2871C182.449 11.2871 181.975 11.4688 181.682 11.832C181.389 12.1953 181.238 12.7734 181.23 13.5664V13.7832C181.23 14.6855 181.381 15.332 181.682 15.7227C181.982 16.1094 182.465 16.3027 183.129 16.3027C183.684 16.3027 184.117 16.0781 184.43 15.6289C184.746 15.1797 184.904 14.5605 184.904 13.7715C184.904 12.9707 184.746 12.3574 184.43 11.9316C184.117 11.502 183.676 11.2871 183.105 11.2871ZM190.33 17.1172C189.381 17.1172 188.631 16.8281 188.08 16.25C187.533 15.6719 187.26 14.8691 187.26 13.8418C187.26 12.8066 187.514 11.9844 188.021 11.375C188.533 10.7656 189.219 10.4609 190.078 10.4609C190.883 10.4609 191.52 10.7266 191.988 11.2578C192.457 11.7852 192.691 12.4824 192.691 13.3496V13.9648H188.268C188.287 14.7188 188.477 15.291 188.836 15.6816C189.199 16.0723 189.709 16.2676 190.365 16.2676C191.057 16.2676 191.74 16.123 192.416 15.834V16.7012C192.072 16.8496 191.746 16.9551 191.438 17.0176C191.133 17.084 190.764 17.1172 190.33 17.1172ZM190.066 11.2754C189.551 11.2754 189.139 11.4434 188.83 11.7793C188.525 12.1152 188.346 12.5801 188.291 13.1738H191.648C191.648 12.5605 191.512 12.0918 191.238 11.7676C190.965 11.4395 190.574 11.2754 190.066 11.2754ZM198.75 17V12.8457C198.75 12.3223 198.631 11.9316 198.393 11.6738C198.154 11.416 197.781 11.2871 197.273 11.2871C196.602 11.2871 196.109 11.4688 195.797 11.832C195.484 12.1953 195.328 12.7949 195.328 13.6309V17H194.355V10.5781H195.146L195.305 11.457H195.352C195.551 11.1406 195.83 10.8965 196.189 10.7246C196.549 10.5488 196.949 10.4609 197.391 10.4609C198.164 10.4609 198.746 10.6484 199.137 11.0234C199.527 11.3945 199.723 11.9902 199.723 12.8105V17H198.75ZM205.869 15.248C205.869 15.8457 205.646 16.3066 205.201 16.6309C204.756 16.9551 204.131 17.1172 203.326 17.1172C202.475 17.1172 201.811 16.9824 201.334 16.7129V15.8105C201.643 15.9668 201.973 16.0898 202.324 16.1797C202.68 16.2695 203.021 16.3145 203.35 16.3145C203.857 16.3145 204.248 16.2344 204.521 16.0742C204.795 15.9102 204.932 15.6621 204.932 15.3301C204.932 15.0801 204.822 14.8672 204.604 14.6914C204.389 14.5117 203.967 14.3008 203.338 14.0586C202.74 13.8359 202.314 13.6426 202.061 13.4785C201.811 13.3105 201.623 13.1211 201.498 12.9102C201.377 12.6992 201.316 12.4473 201.316 12.1543C201.316 11.6309 201.529 11.2188 201.955 10.918C202.381 10.6133 202.965 10.4609 203.707 10.4609C204.398 10.4609 205.074 10.6016 205.734 10.8828L205.389 11.6738C204.744 11.4082 204.16 11.2754 203.637 11.2754C203.176 11.2754 202.828 11.3477 202.594 11.4922C202.359 11.6367 202.242 11.8359 202.242 12.0898C202.242 12.2617 202.285 12.4082 202.371 12.5293C202.461 12.6504 202.604 12.7656 202.799 12.875C202.994 12.9844 203.369 13.1426 203.924 13.3496C204.686 13.627 205.199 13.9062 205.465 14.1875C205.734 14.4688 205.869 14.8223 205.869 15.248ZM210.17 17.1172C209.221 17.1172 208.471 16.8281 207.92 16.25C207.373 15.6719 207.1 14.8691 207.1 13.8418C207.1 12.8066 207.354 11.9844 207.861 11.375C208.373 10.7656 209.059 10.4609 209.918 10.4609C210.723 10.4609 211.359 10.7266 211.828 11.2578C212.297 11.7852 212.531 12.4824 212.531 13.3496V13.9648H208.107C208.127 14.7188 208.316 15.291 208.676 15.6816C209.039 16.0723 209.549 16.2676 210.205 16.2676C210.896 16.2676 211.58 16.123 212.256 15.834V16.7012C211.912 16.8496 211.586 16.9551 211.277 17.0176C210.973 17.084 210.604 17.1172 210.17 17.1172ZM209.906 11.2754C209.391 11.2754 208.979 11.4434 208.67 11.7793C208.365 12.1152 208.186 12.5801 208.131 13.1738H211.488C211.488 12.5605 211.352 12.0918 211.078 11.7676C210.805 11.4395 210.414 11.2754 209.906 11.2754Z" fill="black"/>
<circle cx="127.5" cy="12.5" r="4.5" fill="url(#paint1_linear_2264_5531)"/>
<path d="M254.178 8.43359H256.598C257.734 8.43359 258.557 8.60352 259.064 8.94336C259.572 9.2832 259.826 9.82031 259.826 10.5547C259.826 11.0625 259.684 11.4824 259.398 11.8145C259.117 12.1426 258.705 12.3555 258.162 12.4531V12.5117C259.463 12.7344 260.113 13.418 260.113 14.5625C260.113 15.3281 259.854 15.9258 259.334 16.3555C258.818 16.7852 258.096 17 257.166 17H254.178V8.43359ZM255.174 12.1016H256.814C257.518 12.1016 258.023 11.9922 258.332 11.7734C258.641 11.5508 258.795 11.1777 258.795 10.6543C258.795 10.1738 258.623 9.82812 258.279 9.61719C257.936 9.40234 257.389 9.29492 256.639 9.29492H255.174V12.1016ZM255.174 12.9453V16.1504H256.961C257.652 16.1504 258.172 16.0176 258.52 15.752C258.871 15.4824 259.047 15.0625 259.047 14.4922C259.047 13.9609 258.867 13.5703 258.508 13.3203C258.152 13.0703 257.609 12.9453 256.879 12.9453H255.174ZM262.727 10.5781V14.7441C262.727 15.2676 262.846 15.6582 263.084 15.916C263.322 16.1738 263.695 16.3027 264.203 16.3027C264.875 16.3027 265.365 16.1191 265.674 15.752C265.986 15.3848 266.143 14.7852 266.143 13.9531V10.5781H267.115V17H266.312L266.172 16.1387H266.119C265.92 16.4551 265.643 16.6973 265.287 16.8652C264.936 17.0332 264.533 17.1172 264.08 17.1172C263.299 17.1172 262.713 16.9316 262.322 16.5605C261.936 16.1895 261.742 15.5957 261.742 14.7793V10.5781H262.727ZM273.326 15.248C273.326 15.8457 273.104 16.3066 272.658 16.6309C272.213 16.9551 271.588 17.1172 270.783 17.1172C269.932 17.1172 269.268 16.9824 268.791 16.7129V15.8105C269.1 15.9668 269.43 16.0898 269.781 16.1797C270.137 16.2695 270.479 16.3145 270.807 16.3145C271.314 16.3145 271.705 16.2344 271.979 16.0742C272.252 15.9102 272.389 15.6621 272.389 15.3301C272.389 15.0801 272.279 14.8672 272.061 14.6914C271.846 14.5117 271.424 14.3008 270.795 14.0586C270.197 13.8359 269.771 13.6426 269.518 13.4785C269.268 13.3105 269.08 13.1211 268.955 12.9102C268.834 12.6992 268.773 12.4473 268.773 12.1543C268.773 11.6309 268.986 11.2188 269.412 10.918C269.838 10.6133 270.422 10.4609 271.164 10.4609C271.855 10.4609 272.531 10.6016 273.191 10.8828L272.846 11.6738C272.201 11.4082 271.617 11.2754 271.094 11.2754C270.633 11.2754 270.285 11.3477 270.051 11.4922C269.816 11.6367 269.699 11.8359 269.699 12.0898C269.699 12.2617 269.742 12.4082 269.828 12.5293C269.918 12.6504 270.061 12.7656 270.256 12.875C270.451 12.9844 270.826 13.1426 271.381 13.3496C272.143 13.627 272.656 13.9062 272.922 14.1875C273.191 14.4688 273.326 14.8223 273.326 15.248ZM275.887 17H274.914V10.5781H275.887V17ZM274.832 8.83789C274.832 8.61523 274.887 8.45312 274.996 8.35156C275.105 8.24609 275.242 8.19336 275.406 8.19336C275.562 8.19336 275.697 8.24609 275.811 8.35156C275.924 8.45703 275.98 8.61914 275.98 8.83789C275.98 9.05664 275.924 9.2207 275.811 9.33008C275.697 9.43555 275.562 9.48828 275.406 9.48828C275.242 9.48828 275.105 9.43555 274.996 9.33008C274.887 9.2207 274.832 9.05664 274.832 8.83789ZM282.344 17V12.8457C282.344 12.3223 282.225 11.9316 281.986 11.6738C281.748 11.416 281.375 11.2871 280.867 11.2871C280.195 11.2871 279.703 11.4688 279.391 11.832C279.078 12.1953 278.922 12.7949 278.922 13.6309V17H277.949V10.5781H278.74L278.898 11.457H278.945C279.145 11.1406 279.424 10.8965 279.783 10.7246C280.143 10.5488 280.543 10.4609 280.984 10.4609C281.758 10.4609 282.34 10.6484 282.73 11.0234C283.121 11.3945 283.316 11.9902 283.316 12.8105V17H282.344ZM288.033 17.1172C287.084 17.1172 286.334 16.8281 285.783 16.25C285.236 15.6719 284.963 14.8691 284.963 13.8418C284.963 12.8066 285.217 11.9844 285.725 11.375C286.236 10.7656 286.922 10.4609 287.781 10.4609C288.586 10.4609 289.223 10.7266 289.691 11.2578C290.16 11.7852 290.395 12.4824 290.395 13.3496V13.9648H285.971C285.99 14.7188 286.18 15.291 286.539 15.6816C286.902 16.0723 287.412 16.2676 288.068 16.2676C288.76 16.2676 289.443 16.123 290.119 15.834V16.7012C289.775 16.8496 289.449 16.9551 289.141 17.0176C288.836 17.084 288.467 17.1172 288.033 17.1172ZM287.77 11.2754C287.254 11.2754 286.842 11.4434 286.533 11.7793C286.229 12.1152 286.049 12.5801 285.994 13.1738H289.352C289.352 12.5605 289.215 12.0918 288.941 11.7676C288.668 11.4395 288.277 11.2754 287.77 11.2754ZM296.201 15.248C296.201 15.8457 295.979 16.3066 295.533 16.6309C295.088 16.9551 294.463 17.1172 293.658 17.1172C292.807 17.1172 292.143 16.9824 291.666 16.7129V15.8105C291.975 15.9668 292.305 16.0898 292.656 16.1797C293.012 16.2695 293.354 16.3145 293.682 16.3145C294.189 16.3145 294.58 16.2344 294.854 16.0742C295.127 15.9102 295.264 15.6621 295.264 15.3301C295.264 15.0801 295.154 14.8672 294.936 14.6914C294.721 14.5117 294.299 14.3008 293.67 14.0586C293.072 13.8359 292.646 13.6426 292.393 13.4785C292.143 13.3105 291.955 13.1211 291.83 12.9102C291.709 12.6992 291.648 12.4473 291.648 12.1543C291.648 11.6309 291.861 11.2188 292.287 10.918C292.713 10.6133 293.297 10.4609 294.039 10.4609C294.73 10.4609 295.406 10.6016 296.066 10.8828L295.721 11.6738C295.076 11.4082 294.492 11.2754 293.969 11.2754C293.508 11.2754 293.16 11.3477 292.926 11.4922C292.691 11.6367 292.574 11.8359 292.574 12.0898C292.574 12.2617 292.617 12.4082 292.703 12.5293C292.793 12.6504 292.936 12.7656 293.131 12.875C293.326 12.9844 293.701 13.1426 294.256 13.3496C295.018 13.627 295.531 13.9062 295.797 14.1875C296.066 14.4688 296.201 14.8223 296.201 15.248ZM301.932 15.248C301.932 15.8457 301.709 16.3066 301.264 16.6309C300.818 16.9551 300.193 17.1172 299.389 17.1172C298.537 17.1172 297.873 16.9824 297.396 16.7129V15.8105C297.705 15.9668 298.035 16.0898 298.387 16.1797C298.742 16.2695 299.084 16.3145 299.412 16.3145C299.92 16.3145 300.311 16.2344 300.584 16.0742C300.857 15.9102 300.994 15.6621 300.994 15.3301C300.994 15.0801 300.885 14.8672 300.666 14.6914C300.451 14.5117 300.029 14.3008 299.4 14.0586C298.803 13.8359 298.377 13.6426 298.123 13.4785C297.873 13.3105 297.686 13.1211 297.561 12.9102C297.439 12.6992 297.379 12.4473 297.379 12.1543C297.379 11.6309 297.592 11.2188 298.018 10.918C298.443 10.6133 299.027 10.4609 299.77 10.4609C300.461 10.4609 301.137 10.6016 301.797 10.8828L301.451 11.6738C300.807 11.4082 300.223 11.2754 299.699 11.2754C299.238 11.2754 298.891 11.3477 298.656 11.4922C298.422 11.6367 298.305 11.8359 298.305 12.0898C298.305 12.2617 298.348 12.4082 298.434 12.5293C298.523 12.6504 298.666 12.7656 298.861 12.875C299.057 12.9844 299.432 13.1426 299.986 13.3496C300.748 13.627 301.262 13.9062 301.527 14.1875C301.797 14.4688 301.932 14.8223 301.932 15.248ZM308.711 16.3145C308.883 16.3145 309.049 16.3027 309.209 16.2793C309.369 16.252 309.496 16.2246 309.59 16.1973V16.9414C309.484 16.9922 309.328 17.0332 309.121 17.0645C308.918 17.0996 308.734 17.1172 308.57 17.1172C307.328 17.1172 306.707 16.4629 306.707 15.1543V11.334H305.787V10.8652L306.707 10.4609L307.117 9.08984H307.68V10.5781H309.543V11.334H307.68V15.1133C307.68 15.5 307.771 15.7969 307.955 16.0039C308.139 16.2109 308.391 16.3145 308.711 16.3145ZM313.809 10.4609C314.094 10.4609 314.35 10.4844 314.576 10.5312L314.441 11.4336C314.176 11.375 313.941 11.3457 313.738 11.3457C313.219 11.3457 312.773 11.5566 312.402 11.9785C312.035 12.4004 311.852 12.9258 311.852 13.5547V17H310.879V10.5781H311.682L311.793 11.7676H311.84C312.078 11.3496 312.365 11.0273 312.701 10.8008C313.037 10.5742 313.406 10.4609 313.809 10.4609ZM319.727 17L319.533 16.0859H319.486C319.166 16.4883 318.846 16.7617 318.525 16.9062C318.209 17.0469 317.812 17.1172 317.336 17.1172C316.699 17.1172 316.199 16.9531 315.836 16.625C315.477 16.2969 315.297 15.8301 315.297 15.2246C315.297 13.9277 316.334 13.248 318.408 13.1855L319.498 13.1504V12.752C319.498 12.248 319.389 11.877 319.17 11.6387C318.955 11.3965 318.609 11.2754 318.133 11.2754C317.598 11.2754 316.992 11.4395 316.316 11.7676L316.018 11.0234C316.334 10.8516 316.68 10.7168 317.055 10.6191C317.434 10.5215 317.812 10.4727 318.191 10.4727C318.957 10.4727 319.523 10.6426 319.891 10.9824C320.262 11.3223 320.447 11.8672 320.447 12.6172V17H319.727ZM317.529 16.3145C318.135 16.3145 318.609 16.1484 318.953 15.8164C319.301 15.4844 319.475 15.0195 319.475 14.4219V13.8418L318.502 13.8828C317.729 13.9102 317.17 14.0312 316.826 14.2461C316.486 14.457 316.316 14.7871 316.316 15.2363C316.316 15.5879 316.422 15.8555 316.633 16.0391C316.848 16.2227 317.146 16.3145 317.529 16.3145ZM323.863 17L321.426 10.5781H322.469L323.852 14.3867C324.164 15.2773 324.348 15.8555 324.402 16.1211H324.449C324.492 15.9141 324.627 15.4863 324.854 14.8379C325.084 14.1855 325.598 12.7656 326.395 10.5781H327.438L325 17H323.863ZM331.182 17.1172C330.232 17.1172 329.482 16.8281 328.932 16.25C328.385 15.6719 328.111 14.8691 328.111 13.8418C328.111 12.8066 328.365 11.9844 328.873 11.375C329.385 10.7656 330.07 10.4609 330.93 10.4609C331.734 10.4609 332.371 10.7266 332.84 11.2578C333.309 11.7852 333.543 12.4824 333.543 13.3496V13.9648H329.119C329.139 14.7188 329.328 15.291 329.688 15.6816C330.051 16.0723 330.561 16.2676 331.217 16.2676C331.908 16.2676 332.592 16.123 333.268 15.834V16.7012C332.924 16.8496 332.598 16.9551 332.289 17.0176C331.984 17.084 331.615 17.1172 331.182 17.1172ZM330.918 11.2754C330.402 11.2754 329.99 11.4434 329.682 11.7793C329.377 12.1152 329.197 12.5801 329.143 13.1738H332.5C332.5 12.5605 332.363 12.0918 332.09 11.7676C331.816 11.4395 331.426 11.2754 330.918 11.2754ZM336.18 17H335.207V7.88281H336.18V17Z" fill="black"/>
<circle cx="245.5" cy="12.5" r="4.5" fill="url(#paint2_linear_2264_5531)"/>
<defs>
<linearGradient id="paint0_linear_2264_5531" x1="4.5" y1="8" x2="5" y2="20" gradientUnits="userSpaceOnUse">
<stop stop-color="#18E1A3"/>
<stop offset="1" stop-color="#08C792"/>
</linearGradient>
<linearGradient id="paint1_linear_2264_5531" x1="127.5" y1="8" x2="127.5" y2="17" gradientUnits="userSpaceOnUse">
<stop stop-color="#21D5E2"/>
<stop offset="1" stop-color="#4348E1"/>
</linearGradient>
<linearGradient id="paint2_linear_2264_5531" x1="245.5" y1="8" x2="245.5" y2="17" gradientUnits="userSpaceOnUse">
<stop stop-color="#FFC74E"/>
<stop offset="1" stop-color="#FF7F06"/>
</linearGradient>
</defs>
</svg>
