<svg width="263" height="263" viewBox="0 0 263 263" fill="none" xmlns="http://www.w3.org/2000/svg">
<g filter="url(#filter0_d_2264_5547)">
<mask id="path-1-inside-1_2264_5547" fill="white">
<path d="M240.446 130.5C244.066 130.5 247.019 133.437 246.814 137.051C245.581 158.763 238.238 179.735 225.568 197.518C211.628 217.085 191.933 231.818 169.226 239.665C146.519 247.512 121.93 248.083 98.8827 241.299C75.8358 234.514 55.4782 220.712 40.6446 201.813C25.811 182.914 17.2398 159.861 16.1245 135.862C15.0092 111.863 21.4054 88.1134 34.4223 67.9206C47.4393 47.7278 66.4291 32.0967 88.7474 23.2038C109.032 15.1214 131.148 12.9708 152.531 16.9308C156.09 17.59 158.242 21.157 157.382 24.6732C156.522 28.1894 152.976 30.3207 149.412 29.6875C130.684 26.3596 111.35 28.3085 93.5996 35.3814C73.8142 43.2649 56.9797 57.122 45.4401 75.023C33.9005 92.9241 28.2303 113.978 29.219 135.253C30.2077 156.528 37.8061 176.966 50.9561 193.719C64.1062 210.473 82.1534 222.709 102.585 228.724C123.016 234.738 144.814 234.232 164.944 227.276C185.074 220.319 202.534 207.258 214.892 189.912C225.979 174.35 232.465 156.033 233.682 137.05C233.913 133.438 236.826 130.5 240.446 130.5Z"/>
</mask>
<path d="M240.446 130.5C244.066 130.5 247.019 133.437 246.814 137.051C245.581 158.763 238.238 179.735 225.568 197.518C211.628 217.085 191.933 231.818 169.226 239.665C146.519 247.512 121.93 248.083 98.8827 241.299C75.8358 234.514 55.4782 220.712 40.6446 201.813C25.811 182.914 17.2398 159.861 16.1245 135.862C15.0092 111.863 21.4054 88.1134 34.4223 67.9206C47.4393 47.7278 66.4291 32.0967 88.7474 23.2038C109.032 15.1214 131.148 12.9708 152.531 16.9308C156.09 17.59 158.242 21.157 157.382 24.6732C156.522 28.1894 152.976 30.3207 149.412 29.6875C130.684 26.3596 111.35 28.3085 93.5996 35.3814C73.8142 43.2649 56.9797 57.122 45.4401 75.023C33.9005 92.9241 28.2303 113.978 29.219 135.253C30.2077 156.528 37.8061 176.966 50.9561 193.719C64.1062 210.473 82.1534 222.709 102.585 228.724C123.016 234.738 144.814 234.232 164.944 227.276C185.074 220.319 202.534 207.258 214.892 189.912C225.979 174.35 232.465 156.033 233.682 137.05C233.913 133.438 236.826 130.5 240.446 130.5Z" fill="url(#paint0_linear_2264_5547)"/>
<path d="M240.446 130.5C244.066 130.5 247.019 133.437 246.814 137.051C245.581 158.763 238.238 179.735 225.568 197.518C211.628 217.085 191.933 231.818 169.226 239.665C146.519 247.512 121.93 248.083 98.8827 241.299C75.8358 234.514 55.4782 220.712 40.6446 201.813C25.811 182.914 17.2398 159.861 16.1245 135.862C15.0092 111.863 21.4054 88.1134 34.4223 67.9206C47.4393 47.7278 66.4291 32.0967 88.7474 23.2038C109.032 15.1214 131.148 12.9708 152.531 16.9308C156.09 17.59 158.242 21.157 157.382 24.6732C156.522 28.1894 152.976 30.3207 149.412 29.6875C130.684 26.3596 111.35 28.3085 93.5996 35.3814C73.8142 43.2649 56.9797 57.122 45.4401 75.023C33.9005 92.9241 28.2303 113.978 29.219 135.253C30.2077 156.528 37.8061 176.966 50.9561 193.719C64.1062 210.473 82.1534 222.709 102.585 228.724C123.016 234.738 144.814 234.232 164.944 227.276C185.074 220.319 202.534 207.258 214.892 189.912C225.979 174.35 232.465 156.033 233.682 137.05C233.913 133.438 236.826 130.5 240.446 130.5Z" stroke="white" stroke-opacity="0.85" mask="url(#path-1-inside-1_2264_5547)"/>
</g>
<g filter="url(#filter1_d_2264_5547)">
<mask id="path-2-inside-2_2264_5547" fill="white">
<path d="M222.524 130.5C225.548 130.5 228.016 132.954 227.845 135.973C226.958 151.591 222.284 166.788 214.193 180.24C205.16 195.258 192.207 207.533 176.724 215.747C161.242 223.96 143.815 227.802 126.314 226.861C108.814 225.919 91.8998 220.229 77.3884 210.401C62.8769 200.573 51.3159 186.979 43.9462 171.078C36.5765 155.177 33.6764 137.569 35.5573 120.144C37.4382 102.719 44.0289 86.1353 54.6221 72.1729C64.11 59.6675 76.4877 49.6878 90.6605 43.0678C93.4007 41.7879 96.5953 43.1688 97.7177 45.9772C98.8402 48.7855 97.4643 51.9561 94.7334 53.2559C82.404 59.1244 71.6327 67.8722 63.3473 78.7927C53.9564 91.1704 48.1137 105.872 46.4463 121.319C44.7789 136.766 47.3498 152.376 53.8831 166.473C60.4163 180.569 70.6653 192.621 83.5297 201.333C96.3942 210.045 111.388 215.089 126.903 215.924C142.417 216.759 157.866 213.353 171.592 206.072C185.317 198.79 196.8 187.909 204.808 174.595C211.874 162.848 215.999 149.599 216.873 135.973C217.066 132.954 219.5 130.5 222.524 130.5Z"/>
</mask>
<path d="M222.524 130.5C225.548 130.5 228.016 132.954 227.845 135.973C226.958 151.591 222.284 166.788 214.193 180.24C205.16 195.258 192.207 207.533 176.724 215.747C161.242 223.96 143.815 227.802 126.314 226.861C108.814 225.919 91.8998 220.229 77.3884 210.401C62.8769 200.573 51.3159 186.979 43.9462 171.078C36.5765 155.177 33.6764 137.569 35.5573 120.144C37.4382 102.719 44.0289 86.1353 54.6221 72.1729C64.11 59.6675 76.4877 49.6878 90.6605 43.0678C93.4007 41.7879 96.5953 43.1688 97.7177 45.9772C98.8402 48.7855 97.4643 51.9561 94.7334 53.2559C82.404 59.1244 71.6327 67.8722 63.3473 78.7927C53.9564 91.1704 48.1137 105.872 46.4463 121.319C44.7789 136.766 47.3498 152.376 53.8831 166.473C60.4163 180.569 70.6653 192.621 83.5297 201.333C96.3942 210.045 111.388 215.089 126.903 215.924C142.417 216.759 157.866 213.353 171.592 206.072C185.317 198.79 196.8 187.909 204.808 174.595C211.874 162.848 215.999 149.599 216.873 135.973C217.066 132.954 219.5 130.5 222.524 130.5Z" fill="url(#paint1_linear_2264_5547)"/>
<path d="M222.524 130.5C225.548 130.5 228.016 132.954 227.845 135.973C226.958 151.591 222.284 166.788 214.193 180.24C205.16 195.258 192.207 207.533 176.724 215.747C161.242 223.96 143.815 227.802 126.314 226.861C108.814 225.919 91.8998 220.229 77.3884 210.401C62.8769 200.573 51.3159 186.979 43.9462 171.078C36.5765 155.177 33.6764 137.569 35.5573 120.144C37.4382 102.719 44.0289 86.1353 54.6221 72.1729C64.11 59.6675 76.4877 49.6878 90.6605 43.0678C93.4007 41.7879 96.5953 43.1688 97.7177 45.9772C98.8402 48.7855 97.4643 51.9561 94.7334 53.2559C82.404 59.1244 71.6327 67.8722 63.3473 78.7927C53.9564 91.1704 48.1137 105.872 46.4463 121.319C44.7789 136.766 47.3498 152.376 53.8831 166.473C60.4163 180.569 70.6653 192.621 83.5297 201.333C96.3942 210.045 111.388 215.089 126.903 215.924C142.417 216.759 157.866 213.353 171.592 206.072C185.317 198.79 196.8 187.909 204.808 174.595C211.874 162.848 215.999 149.599 216.873 135.973C217.066 132.954 219.5 130.5 222.524 130.5Z" stroke="white" stroke-opacity="0.85" mask="url(#path-2-inside-2_2264_5547)"/>
</g>
<g filter="url(#filter2_d_2264_5547)">
<mask id="path-3-inside-3_2264_5547" fill="white">
<path d="M205.574 131C208.018 131 210.013 132.984 209.874 135.424C208.904 152.521 202.327 168.871 191.096 181.908C178.901 196.065 162.028 205.374 143.548 208.14C125.068 210.907 106.209 206.947 90.4024 196.982C74.5956 187.017 62.8915 171.708 57.4195 153.842C51.9475 135.975 53.0713 116.738 60.5864 99.6297C68.1015 82.5217 81.5085 68.6801 98.3681 60.6232C115.228 52.5663 134.419 50.8295 152.452 55.7289C169.056 60.2405 183.661 70.1031 194.04 83.724C195.522 85.6685 194.98 88.4291 192.955 89.798C190.93 91.167 188.189 90.6249 186.693 88.6913C177.512 76.8222 164.688 68.2272 150.13 64.2718C134.145 59.9284 117.131 61.4681 102.185 68.6105C87.239 75.753 75.3536 88.0237 68.6914 103.19C62.0292 118.356 61.033 135.41 65.8839 151.249C70.7349 167.088 81.1107 180.659 95.1235 189.494C109.136 198.328 125.855 201.838 142.237 199.385C158.62 196.933 173.578 188.681 184.389 176.13C194.235 164.701 200.046 150.398 201.006 135.424C201.162 132.984 203.129 131 205.574 131Z"/>
</mask>
<path d="M205.574 131C208.018 131 210.013 132.984 209.874 135.424C208.904 152.521 202.327 168.871 191.096 181.908C178.901 196.065 162.028 205.374 143.548 208.14C125.068 210.907 106.209 206.947 90.4024 196.982C74.5956 187.017 62.8915 171.708 57.4195 153.842C51.9475 135.975 53.0713 116.738 60.5864 99.6297C68.1015 82.5217 81.5085 68.6801 98.3681 60.6232C115.228 52.5663 134.419 50.8295 152.452 55.7289C169.056 60.2405 183.661 70.1031 194.04 83.724C195.522 85.6685 194.98 88.4291 192.955 89.798C190.93 91.167 188.189 90.6249 186.693 88.6913C177.512 76.8222 164.688 68.2272 150.13 64.2718C134.145 59.9284 117.131 61.4681 102.185 68.6105C87.239 75.753 75.3536 88.0237 68.6914 103.19C62.0292 118.356 61.033 135.41 65.8839 151.249C70.7349 167.088 81.1107 180.659 95.1235 189.494C109.136 198.328 125.855 201.838 142.237 199.385C158.62 196.933 173.578 188.681 184.389 176.13C194.235 164.701 200.046 150.398 201.006 135.424C201.162 132.984 203.129 131 205.574 131Z" fill="url(#paint2_linear_2264_5547)"/>
<path d="M205.574 131C208.018 131 210.013 132.984 209.874 135.424C208.904 152.521 202.327 168.871 191.096 181.908C178.901 196.065 162.028 205.374 143.548 208.14C125.068 210.907 106.209 206.947 90.4024 196.982C74.5956 187.017 62.8915 171.708 57.4195 153.842C51.9475 135.975 53.0713 116.738 60.5864 99.6297C68.1015 82.5217 81.5085 68.6801 98.3681 60.6232C115.228 52.5663 134.419 50.8295 152.452 55.7289C169.056 60.2405 183.661 70.1031 194.04 83.724C195.522 85.6685 194.98 88.4291 192.955 89.798C190.93 91.167 188.189 90.6249 186.693 88.6913C177.512 76.8222 164.688 68.2272 150.13 64.2718C134.145 59.9284 117.131 61.4681 102.185 68.6105C87.239 75.753 75.3536 88.0237 68.6914 103.19C62.0292 118.356 61.033 135.41 65.8839 151.249C70.7349 167.088 81.1107 180.659 95.1235 189.494C109.136 198.328 125.855 201.838 142.237 199.385C158.62 196.933 173.578 188.681 184.389 176.13C194.235 164.701 200.046 150.398 201.006 135.424C201.162 132.984 203.129 131 205.574 131Z" stroke="white" stroke-opacity="0.85" mask="url(#path-3-inside-3_2264_5547)"/>
</g>
<defs>
<filter id="filter0_d_2264_5547" x="0.1" y="0.1" width="262.624" height="262.8" filterUnits="userSpaceOnUse" color-interpolation-filters="sRGB">
<feFlood flood-opacity="0" result="BackgroundImageFix"/>
<feColorMatrix in="SourceAlpha" type="matrix" values="0 0 0 0 0 0 0 0 0 0 0 0 0 0 0 0 0 0 127 0" result="hardAlpha"/>
<feOffset dy="1"/>
<feGaussianBlur stdDeviation="7.95"/>
<feComposite in2="hardAlpha" operator="out"/>
<feColorMatrix type="matrix" values="0 0 0 0 0 0 0 0 0 0 0 0 0 0 0 0 0 0 0.25 0"/>
<feBlend mode="normal" in2="BackgroundImageFix" result="effect1_dropShadow_2264_5547"/>
<feBlend mode="normal" in="SourceGraphic" in2="effect1_dropShadow_2264_5547" result="shape"/>
</filter>
<filter id="filter1_d_2264_5547" x="19.1" y="27.6872" width="224.653" height="216.213" filterUnits="userSpaceOnUse" color-interpolation-filters="sRGB">
<feFlood flood-opacity="0" result="BackgroundImageFix"/>
<feColorMatrix in="SourceAlpha" type="matrix" values="0 0 0 0 0 0 0 0 0 0 0 0 0 0 0 0 0 0 127 0" result="hardAlpha"/>
<feOffset dy="1"/>
<feGaussianBlur stdDeviation="7.95"/>
<feComposite in2="hardAlpha" operator="out"/>
<feColorMatrix type="matrix" values="0 0 0 0 0 0 0 0 0 0 0 0 0 0 0 0 0 0 0.25 0"/>
<feBlend mode="normal" in2="BackgroundImageFix" result="effect1_dropShadow_2264_5547"/>
<feBlend mode="normal" in="SourceGraphic" in2="effect1_dropShadow_2264_5547" result="shape"/>
</filter>
<filter id="filter2_d_2264_5547" x="38.1" y="38.1" width="187.681" height="187.8" filterUnits="userSpaceOnUse" color-interpolation-filters="sRGB">
<feFlood flood-opacity="0" result="BackgroundImageFix"/>
<feColorMatrix in="SourceAlpha" type="matrix" values="0 0 0 0 0 0 0 0 0 0 0 0 0 0 0 0 0 0 127 0" result="hardAlpha"/>
<feOffset dy="1"/>
<feGaussianBlur stdDeviation="7.95"/>
<feComposite in2="hardAlpha" operator="out"/>
<feColorMatrix type="matrix" values="0 0 0 0 0 0 0 0 0 0 0 0 0 0 0 0 0 0 0.25 0"/>
<feBlend mode="normal" in2="BackgroundImageFix" result="effect1_dropShadow_2264_5547"/>
<feBlend mode="normal" in="SourceGraphic" in2="effect1_dropShadow_2264_5547" result="shape"/>
</filter>
<linearGradient id="paint0_linear_2264_5547" x1="131.5" y1="15" x2="131.5" y2="246" gradientUnits="userSpaceOnUse">
<stop stop-color="#2AFEB7"/>
<stop offset="1" stop-color="#08C792"/>
</linearGradient>
<linearGradient id="paint1_linear_2264_5547" x1="47.5" y1="58.5" x2="185.5" y2="233" gradientUnits="userSpaceOnUse">
<stop stop-color="#1DE5E2"/>
<stop offset="1" stop-color="#4E1DE1"/>
</linearGradient>
<linearGradient id="paint2_linear_2264_5547" x1="132" y1="53" x2="132" y2="209" gradientUnits="userSpaceOnUse">
<stop stop-color="#FFCB52"/>
<stop offset="1" stop-color="#FF7B02"/>
</linearGradient>
</defs>
</svg>
