<svg width="33" height="13" viewBox="0 0 33 13" fill="none" xmlns="http://www.w3.org/2000/svg">
<path d="M9.216 1.84H5.504V12H3.96V1.84H0.24V0.535999H9.216V1.84ZM12.044 3.768C12.636 3.768 13.1693 3.86667 13.644 4.064C14.1187 4.26133 14.524 4.54133 14.86 4.904C15.196 5.26667 15.452 5.70667 15.628 6.224C15.8093 6.736 15.9 7.30933 15.9 7.944C15.9 8.584 15.8093 9.16 15.628 9.672C15.452 10.184 15.196 10.6213 14.86 10.984C14.524 11.3467 14.1187 11.6267 13.644 11.824C13.1693 12.016 12.636 12.112 12.044 12.112C11.4467 12.112 10.908 12.016 10.428 11.824C9.95333 11.6267 9.548 11.3467 9.212 10.984C8.876 10.6213 8.61733 10.184 8.436 9.672C8.26 9.16 8.172 8.584 8.172 7.944C8.172 7.30933 8.26 6.736 8.436 6.224C8.61733 5.70667 8.876 5.26667 9.212 4.904C9.548 4.54133 9.95333 4.26133 10.428 4.064C10.908 3.86667 11.4467 3.768 12.044 3.768ZM12.044 11C12.844 11 13.4413 10.7333 13.836 10.2C14.2307 9.66133 14.428 8.912 14.428 7.952C14.428 6.98667 14.2307 6.23467 13.836 5.696C13.4413 5.15733 12.844 4.888 12.044 4.888C11.6387 4.888 11.284 4.95733 10.98 5.096C10.6813 5.23467 10.4307 5.43467 10.228 5.696C10.0307 5.95733 9.88133 6.28 9.78 6.664C9.684 7.04267 9.636 7.472 9.636 7.952C9.636 8.912 9.83333 9.66133 10.228 10.2C10.628 10.7333 11.2333 11 12.044 11ZM20.0535 12.128C19.4135 12.128 18.9202 11.9493 18.5735 11.592C18.2322 11.2347 18.0615 10.72 18.0615 10.048V5.088H17.0855C17.0002 5.088 16.9282 5.064 16.8695 5.016C16.8108 4.96267 16.7815 4.88267 16.7815 4.776V4.208L18.1095 4.04L18.4375 1.536C18.4535 1.456 18.4882 1.392 18.5415 1.344C18.6002 1.29067 18.6748 1.264 18.7655 1.264H19.4855V4.056H21.8295V5.088H19.4855V9.952C19.4855 10.2933 19.5682 10.5467 19.7335 10.712C19.8988 10.8773 20.1122 10.96 20.3735 10.96C20.5228 10.96 20.6508 10.9413 20.7575 10.904C20.8695 10.8613 20.9655 10.816 21.0455 10.768C21.1255 10.72 21.1922 10.6773 21.2455 10.64C21.3042 10.5973 21.3548 10.576 21.3975 10.576C21.4722 10.576 21.5388 10.6213 21.5975 10.712L22.0135 11.392C21.7682 11.6213 21.4722 11.8027 21.1255 11.936C20.7788 12.064 20.4215 12.128 20.0535 12.128ZM27.6919 8.352C27.0359 8.37333 26.4759 8.42667 26.0119 8.512C25.5532 8.592 25.1772 8.69867 24.8839 8.832C24.5959 8.96533 24.3852 9.12267 24.2519 9.304C24.1239 9.48533 24.0599 9.688 24.0599 9.912C24.0599 10.1253 24.0945 10.3093 24.1639 10.464C24.2332 10.6187 24.3265 10.7467 24.4439 10.848C24.5665 10.944 24.7079 11.016 24.8679 11.064C25.0332 11.1067 25.2092 11.128 25.3959 11.128C25.6465 11.128 25.8759 11.104 26.0839 11.056C26.2919 11.0027 26.4865 10.928 26.6679 10.832C26.8545 10.736 27.0305 10.6213 27.1959 10.488C27.3665 10.3547 27.5319 10.2027 27.6919 10.032V8.352ZM23.0919 5.04C23.5399 4.608 24.0225 4.28533 24.5399 4.072C25.0572 3.85867 25.6305 3.752 26.2599 3.752C26.7132 3.752 27.1159 3.82667 27.4679 3.976C27.8199 4.12533 28.1159 4.33333 28.3559 4.6C28.5959 4.86667 28.7772 5.18933 28.8999 5.568C29.0225 5.94667 29.0839 6.36267 29.0839 6.816V12H28.4519C28.3132 12 28.2065 11.9787 28.1319 11.936C28.0572 11.888 27.9985 11.7973 27.9559 11.664L27.7959 10.896C27.5825 11.0933 27.3745 11.2693 27.1719 11.424C26.9692 11.5733 26.7559 11.7013 26.5319 11.808C26.3079 11.9093 26.0679 11.9867 25.8119 12.04C25.5612 12.0987 25.2812 12.128 24.9719 12.128C24.6572 12.128 24.3612 12.0853 24.0839 12C23.8065 11.9093 23.5639 11.776 23.3559 11.6C23.1532 11.424 22.9905 11.2027 22.8679 10.936C22.7505 10.664 22.6919 10.344 22.6919 9.976C22.6919 9.656 22.7799 9.34933 22.9559 9.056C23.1319 8.75733 23.4172 8.49333 23.8119 8.264C24.2065 8.03467 24.7212 7.848 25.3559 7.704C25.9905 7.55467 26.7692 7.46933 27.6919 7.448V6.816C27.6919 6.18667 27.5559 5.712 27.2839 5.392C27.0119 5.06667 26.6145 4.904 26.0919 4.904C25.7399 4.904 25.4439 4.94933 25.2039 5.04C24.9692 5.12533 24.7639 5.224 24.5879 5.336C24.4172 5.44267 24.2679 5.54133 24.1399 5.632C24.0172 5.71733 23.8945 5.76 23.7719 5.76C23.6759 5.76 23.5932 5.736 23.5239 5.688C23.4545 5.63467 23.3959 5.57067 23.3479 5.496L23.0919 5.04ZM32.725 0.216V12H31.301V0.216H32.725Z" fill="black"/>
</svg>
